<svg width="300" height="255" viewBox="0 0 300 255" fill="none" xmlns="http://www.w3.org/2000/svg">
<g clip-path="url(#clip0_82_417)">
<path d="M212.984 20.1329C244.015 27.8117 269.535 61.4504 269.139 94.6172C268.751 127.712 242.444 160.335 220.431 191.73C198.481 223.129 180.948 253.32 158.756 254.92C136.538 256.496 109.696 229.448 87.4851 211.507C65.2045 193.57 47.6059 184.731 32.447 168.966C17.2882 153.2 4.63123 130.5 7.59473 110.175C10.5582 89.8499 29.1499 71.9128 48.595 62.1263C68.106 52.2718 88.4044 50.5721 116.864 40.5817C145.324 30.5912 181.921 12.3981 212.984 20.1329Z" fill="#F8F8F8"/>
<path d="M197.278 173.629L156.709 91.0456C155.471 90.3017 150.502 87.0103 150.502 87.0103" stroke="#DFDFDF" stroke-width="5" stroke-linecap="round" stroke-linejoin="round"/>
<path d="M153.799 97.5848C153.314 95.933 151.86 92.5296 151.86 92.5296C150.972 92.4736 144.789 89.1941 144.789 89.1941" stroke="#DFDFDF" stroke-width="5" stroke-linecap="round" stroke-linejoin="round"/>
<path d="M143.02 89.4979L162.244 81.4111" stroke="#DFDFDF" stroke-width="5" stroke-linecap="round" stroke-linejoin="round"/>
<path d="M4.94175 215.646L0 220.353L11.8618 236.391L15.5312 233.044L9.8835 218.774L4.94175 215.646Z" fill="black"/>
<path d="M100.724 201.009L96.6396 208.767L106.779 225.045L111.05 223.909L108.249 202.664L100.724 201.009Z" fill="black"/>
<path d="M146.949 91.0458C150.283 91.0458 152.985 88.967 152.985 86.4025C152.985 83.8381 150.283 81.7593 146.949 81.7593C143.616 81.7593 140.914 83.8381 140.914 86.4025C140.914 88.967 143.616 91.0458 146.949 91.0458Z" fill="#D37C59"/>
<path d="M66.4033 91.3057C63.6881 95.305 4.01855 216.118 4.01855 216.118L10.7679 220.365L89.5101 132.507L66.4033 91.3057Z" fill="#56CAD8"/>
<path d="M117.811 61.9902C119.362 63.358 123.908 68.6772 125.394 69.645C126.879 70.6129 143.92 81.5712 147.116 82.539C150.312 83.5069 143.52 86.3864 143.52 86.3864C143.52 86.3864 121.321 81.3112 119.68 80.1834C118.039 79.0556 108.315 70.9848 108.315 68.8212C108.315 66.6575 117.811 61.9902 117.811 61.9902Z" fill="#D37C59"/>
<path d="M104.805 51.5919C109.758 46.0528 119.432 59.1907 119.222 61.1224C119.013 63.0541 112.171 71.1568 107.834 71.1568C106.535 71.1568 101.325 55.4833 104.805 51.5919Z" fill="#FCC486"/>
<path d="M65.6355 92.5215C64.4718 94.1212 59.4292 106.919 59.4292 111.319C59.4292 141.314 102.803 149.097 109.033 149.097C108.133 153.284 98.5908 200.844 99.0408 201.888C99.4908 202.932 107.408 205.064 109.033 204.788C115.239 201.304 135.274 152.796 133.769 145.897C131.655 136.231 98.4706 107.959 93.6762 105.144C88.8819 102.328 65.6355 92.5215 65.6355 92.5215Z" fill="#74D5DE"/>
<path d="M94.2891 39.1938C127.675 39.1938 101.81 103.896 95.9376 107.403C92.0587 109.715 68.0094 100.924 65.4338 92.1055C64.5533 89.094 75.8409 39.1938 94.2891 39.1938Z" fill="#FED385"/>
<path d="M141.868 93.2333C145.201 93.2333 147.903 91.1545 147.903 88.59C147.903 86.0256 145.201 83.9468 141.868 83.9468C138.534 83.9468 135.832 86.0256 135.832 88.59C135.832 91.1545 138.534 93.2333 141.868 93.2333Z" fill="#DE8E68"/>
<path d="M83.6333 69.069C83.7148 72.3325 84.7737 87.3102 86.0887 87.7621C101.992 93.2333 129.533 90.8216 134.288 90.4937C139.044 90.1657 142.093 86.7143 141.856 85.8944C141.619 85.0745 126.662 78.7875 100.697 78.0476C100.216 75.0241 101.368 65.8855 100.181 65.0697C98.9938 64.2538 83.6333 69.069 83.6333 69.069Z" fill="#DE8E68"/>
<path d="M88.0516 41.9654C101.864 39.0539 104.343 65.6417 103.017 67.6014C101.69 69.5611 84.0913 72.3327 81.7949 70.6209C79.4986 68.9092 77.5786 44.1691 88.0516 41.9654Z" fill="#FED892"/>
<path d="M97.4504 22.6604C96.8142 25.164 92.4737 39.4978 92.7414 40.2576C93.009 41.0175 98.9826 44.369 101.275 44.0011C101.364 42.9092 102.338 37.0621 104.332 33.5467C106.325 30.0312 97.4504 22.6604 97.4504 22.6604Z" fill="#D37C59"/>
<path d="M115.138 22.7323C115.885 15.1072 112.507 8.51102 107.593 7.99925C102.679 7.48747 98.0898 13.2539 97.3428 20.8789C96.5958 28.504 99.9738 35.1002 104.888 35.612C109.802 36.1237 114.391 30.3573 115.138 22.7323Z" fill="#DE8E68"/>
<path d="M96.4846 22.6604C95.4684 22.0845 93.5405 18.6931 93.5405 15.5416C93.5405 10.6103 98.3077 7.80278 101.523 6.34301C103.955 5.21918 106.023 0 111.562 0C115.98 0 116.275 4.58728 118.307 4.76325C123.575 5.21518 126.531 5.41915 126.531 9.36653C126.531 12.2661 122.923 20.1648 115.565 20.1648C115.565 18.7011 115.088 15.0656 114.301 13.3179C109.879 13.5459 106.279 19.405 100.146 19.381C98.8314 19.357 96.4846 22.6604 96.4846 22.6604Z" fill="#FD8369"/>
<path d="M98.8002 25.1162C100.304 25.1162 101.523 23.5816 101.523 21.6887C101.523 19.7958 100.304 18.2612 98.8002 18.2612C97.2963 18.2612 96.0771 19.7958 96.0771 21.6887C96.0771 23.5816 97.2963 25.1162 98.8002 25.1162Z" fill="#DE8E68"/>
<path d="M294.845 204.792H168.113V176.44C175.044 175.808 273.577 166.21 273.577 166.21V104.568L153.799 97.5847L168.113 176.448" stroke="#DFDFDF" stroke-width="5" stroke-linecap="round" stroke-linejoin="round"/>
<path d="M178.299 220.457C181.547 220.457 184.179 217.743 184.179 214.394C184.179 211.046 181.547 208.331 178.299 208.331C175.051 208.331 172.418 211.046 172.418 214.394C172.418 217.743 175.051 220.457 178.299 220.457Z" stroke="#DFDFDF" stroke-width="5" stroke-linecap="round" stroke-linejoin="round"/>
<path d="M293.15 220.457C296.398 220.457 299.03 217.743 299.03 214.394C299.03 211.046 296.398 208.331 293.15 208.331C289.902 208.331 287.27 211.046 287.27 214.394C287.27 217.743 289.902 220.457 293.15 220.457Z" stroke="#DFDFDF" stroke-width="5" stroke-linecap="round" stroke-linejoin="round"/>
<path d="M158.478 123.353H273.577" stroke="#DFDFDF" stroke-width="5" stroke-linecap="round" stroke-linejoin="round"/>
<path d="M161.658 140.878H273.577" stroke="#DFDFDF" stroke-width="5" stroke-linecap="round" stroke-linejoin="round"/>
<path d="M133.288 93.5894L143.02 89.498" stroke="#DFDFDF" stroke-width="5" stroke-linecap="round" stroke-linejoin="round"/>
<path d="M171.398 140.878C170.137 137.202 156.763 97.7485 156.763 97.7485" stroke="#DFDFDF" stroke-width="5" stroke-linecap="round" stroke-linejoin="round"/>
</g>
<defs>
<clipPath id="clip0_82_417">
<rect width="300" height="255" fill="white"/>
</clipPath>
</defs>
</svg>
