<svg width="236" height="190" viewBox="0 0 236 190" fill="none" xmlns="http://www.w3.org/2000/svg">
<path d="M1.83457 76.7618C7.0345 115.562 81.3346 166.928 117.835 187.762V54.7618C105.435 -13.2382 52.668 -2.57154 27.8346 11.2618C17.0012 16.9285 -3.36535 37.9618 1.83457 76.7618Z" fill="#FFC7C7" stroke="#FFC7C7"/>
<path d="M234.165 76.7611C228.966 115.561 154.669 166.927 118.17 187.76V54.7613C130.569 -13.2381 183.334 -2.5715 208.166 11.2617C218.999 16.9283 239.365 37.9614 234.165 76.7611Z" fill="#FFC7C7" stroke="#FFC7C7"/>
<path d="M40 4L21 34L38.5 60.5L21 97L33 128" stroke="white" stroke-width="3"/>
<path d="M202 7L188 30L205.5 56.5L188 93L202 128.5" stroke="white" stroke-width="3"/>
<path d="M57 53C56.4133 54.1362 49.4222 68.1498 46 75.0145H68.7333M68.7333 75.0145L79 53M68.7333 75.0145L57 102" stroke="#303030" stroke-width="3"/>
<path d="M96 102L118 53H140L118 102H96Z" stroke="#303030" stroke-width="3"/>
<path d="M173 51C172.413 52.1362 165.422 66.1498 162 73.0145H184.733M184.733 73.0145L195 51M184.733 73.0145L173 100" stroke="#303030" stroke-width="3"/>
<path d="M95 102C95 102 111.5 116.5 118.5 122.5L96 146.5L118 188.5" stroke="#303030" stroke-width="3"/>
</svg>
